<svg role="img" viewBox="0 0 24 24" xmlns="http://www.w3.org/2000/svg"><title>Desktop Operator</title><path fill="#0EA5E9" d="M4 3h16a2 2 0 0 1 2 2v9a2 2 0 0 1-2 2h-5.5a.75.75 0 0 1 0-1.5H20a.5.5 0 0 0 .5-.5V5a.5.5 0 0 0-.5-.5H4a.5.5 0 0 0-.5.5v9a.5.5 0 0 0 .5.5h4a.75.75 0 0 1 0 1.5H4a2 2 0 0 1-2-2V5a2 2 0 0 1 2-2Z"/><path fill="#0EA5E9" d="M11.3 10.2a.6.6 0 0 1 .86-.66l7 3.2a.6.6 0 0 1-.06 1.11l-2.86.92-1.27 2.74a.6.6 0 0 1-1.12-.13l-2.49-7.18a.6.6 0 0 1-.01-.06Z"/><path fill="#0EA5E9" d="M7 7.5h6a.75.75 0 0 1 0 1.5H7a.75.75 0 0 1 0-1.5Zm0 3h3.5a.75.75 0 0 1 0 1.5H7a.75.75 0 0 1 0-1.5Z"/></svg>
